<mxfile host="app.diagrams.net" modified="2022-06-15T13:37:27.978Z" agent="5.0 (Windows NT 10.0; Win64; x64) AppleWebKit/537.36 (KHTML, like Gecko) Chrome/102.0.5005.63 Safari/537.36 Edg/102.0.1245.39" etag="GsbOYcYe8iLgQt-zFP6K" version="20.0.1" type="github">
  <diagram id="iNHM5rQC0G_VCljfB0WK" name="Page-1">
    <mxGraphModel dx="1422" dy="786" grid="1" gridSize="10" guides="1" tooltips="1" connect="1" arrows="1" fold="1" page="1" pageScale="1" pageWidth="850" pageHeight="1100" math="0" shadow="0">
      <root>
        <mxCell id="0" />
        <mxCell id="1" parent="0" />
        <object placeholders="1" c4Name="Drupal 9" c4Type="Software System" c4Description="sdgs.un.org" label="&lt;b&gt;%c4Name%&lt;/b&gt;&lt;div&gt;[%c4Type%]&lt;/div&gt;&lt;br&gt;&lt;div&gt;%c4Description%&lt;/div&gt;" id="WMJqvAxaC52JAcJJs5ff-44">
          <mxCell style="rounded=1;whiteSpace=wrap;html=1;labelBackgroundColor=none;fillColor=#1168BD;fontColor=#ffffff;align=center;arcSize=10;strokeColor=#1168BD;metaEdit=1;metaData={&quot;c4Type&quot;:{&quot;editable&quot;:false}};points=[[0.25,0,0],[0.5,0,0],[0.75,0,0],[1,0.25,0],[1,0.5,0],[1,0.75,0],[0.75,1,0],[0.5,1,0],[0.25,1,0],[0,0.75,0],[0,0.5,0],[0,0.25,0]];" parent="1" vertex="1">
            <mxGeometry x="290" y="550" width="160" height="110.00000000000001" as="geometry" />
          </mxCell>
        </object>
        <mxCell id="WMJqvAxaC52JAcJJs5ff-54" style="edgeStyle=orthogonalEdgeStyle;rounded=0;orthogonalLoop=1;jettySize=auto;html=1;entryX=0;entryY=0.5;entryDx=0;entryDy=0;entryPerimeter=0;startArrow=none;startFill=0;" parent="1" edge="1">
          <mxGeometry relative="1" as="geometry">
            <mxPoint x="160" y="350" as="sourcePoint" />
            <mxPoint x="300" y="400" as="targetPoint" />
            <Array as="points">
              <mxPoint x="160" y="400" />
            </Array>
          </mxGeometry>
        </mxCell>
        <mxCell id="dnXlJcdKjLnWwiea_6q6-1" style="edgeStyle=orthogonalEdgeStyle;rounded=0;orthogonalLoop=1;jettySize=auto;html=1;" parent="1" edge="1">
          <mxGeometry relative="1" as="geometry">
            <mxPoint x="100" y="360" as="sourcePoint" />
            <mxPoint x="290" y="590" as="targetPoint" />
            <Array as="points">
              <mxPoint x="100" y="590" />
              <mxPoint x="290" y="590" />
            </Array>
          </mxGeometry>
        </mxCell>
        <mxCell id="WMJqvAxaC52JAcJJs5ff-47" value="Administrator&lt;br&gt;&lt;br&gt;A user of the website who manages it&amp;nbsp;" style="shape=umlActor;verticalLabelPosition=bottom;verticalAlign=top;html=1;outlineConnect=0;strokeColor=#000000;fillColor=#ffffff;" parent="1" vertex="1">
          <mxGeometry x="140" y="240" width="30" height="60" as="geometry" />
        </mxCell>
        <mxCell id="WMJqvAxaC52JAcJJs5ff-53" style="edgeStyle=orthogonalEdgeStyle;rounded=0;orthogonalLoop=1;jettySize=auto;html=1;startArrow=none;startFill=0;entryX=0.75;entryY=0;entryDx=0;entryDy=0;" parent="1" target="WMJqvAxaC52JAcJJs5ff-57" edge="1">
          <mxGeometry relative="1" as="geometry">
            <mxPoint x="420" y="310" as="sourcePoint" />
            <mxPoint x="370" y="380" as="targetPoint" />
            <Array as="points" />
          </mxGeometry>
        </mxCell>
        <mxCell id="I5WQfjfWnCgOxvsbjBrm-2" style="edgeStyle=orthogonalEdgeStyle;rounded=0;orthogonalLoop=1;jettySize=auto;html=1;startArrow=none;startFill=0;" parent="1" edge="1">
          <mxGeometry relative="1" as="geometry">
            <Array as="points">
              <mxPoint x="490" y="570" />
              <mxPoint x="450" y="570" />
            </Array>
            <mxPoint x="490" y="320" as="sourcePoint" />
            <mxPoint x="450" y="570" as="targetPoint" />
          </mxGeometry>
        </mxCell>
        <mxCell id="WMJqvAxaC52JAcJJs5ff-48" value="Editor&lt;br&gt;&lt;br&gt;Content Editors of the website" style="shape=umlActor;verticalLabelPosition=bottom;verticalAlign=top;html=1;outlineConnect=0;strokeColor=#000000;fillColor=#ffffff;" parent="1" vertex="1">
          <mxGeometry x="410" y="200" width="30" height="60" as="geometry" />
        </mxCell>
        <mxCell id="WMJqvAxaC52JAcJJs5ff-52" style="edgeStyle=orthogonalEdgeStyle;rounded=0;orthogonalLoop=1;jettySize=auto;html=1;startArrow=none;startFill=0;" parent="1" target="WMJqvAxaC52JAcJJs5ff-44" edge="1" source="WMJqvAxaC52JAcJJs5ff-51">
          <mxGeometry relative="1" as="geometry">
            <mxPoint x="670" y="530" as="sourcePoint" />
            <Array as="points">
              <mxPoint x="590" y="566" />
              <mxPoint x="590" y="620" />
            </Array>
          </mxGeometry>
        </mxCell>
        <mxCell id="WMJqvAxaC52JAcJJs5ff-51" value="Public User&lt;br&gt;&lt;br&gt;A public user of the&amp;nbsp; website" style="shape=umlActor;verticalLabelPosition=bottom;verticalAlign=top;html=1;outlineConnect=0;strokeColor=#000000;fillColor=#ffffff;" parent="1" vertex="1">
          <mxGeometry x="712" y="536" width="30" height="60" as="geometry" />
        </mxCell>
        <mxCell id="WMJqvAxaC52JAcJJs5ff-63" style="edgeStyle=orthogonalEdgeStyle;rounded=0;orthogonalLoop=1;jettySize=auto;html=1;entryX=0.567;entryY=0.012;entryDx=0;entryDy=0;entryPerimeter=0;startArrow=none;startFill=0;" parent="1" source="WMJqvAxaC52JAcJJs5ff-57" target="WMJqvAxaC52JAcJJs5ff-44" edge="1">
          <mxGeometry relative="1" as="geometry" />
        </mxCell>
        <mxCell id="WMJqvAxaC52JAcJJs5ff-57" value="&lt;font color=&quot;#ffffff&quot;&gt;&lt;b&gt;UN Azure AD&lt;/b&gt;&lt;br&gt;&lt;br&gt;UN Azure Authentication Directory&lt;/font&gt;" style="rounded=1;whiteSpace=wrap;html=1;strokeColor=#000000;fillColor=#999999;" parent="1" vertex="1">
          <mxGeometry x="300" y="380" width="160" height="90" as="geometry" />
        </mxCell>
        <mxCell id="WMJqvAxaC52JAcJJs5ff-60" value="sdgs.un.org Context&lt;br&gt;&lt;i style=&quot;font-size: 16px ; line-height: 9.6px&quot;&gt;&lt;span style=&quot;font-weight: 400&quot;&gt;&lt;a href=&quot;https://sdgs.un.org&quot;&gt;https://sdgs.un.org/&lt;/a&gt;&lt;/span&gt;&lt;span style=&quot;font-weight: normal ; line-height: 17.6px&quot;&gt;&amp;nbsp;- Prod&lt;br&gt;&lt;a href=&quot;https://sdgs.dev.un.org&quot;&gt;https://sdgs.dev.un.org&lt;/a&gt; - Dev&lt;br&gt;&lt;i style=&quot;font-weight: 700; line-height: 9.6px;&quot;&gt;&lt;span style=&quot;font-weight: normal; line-height: 17.6px;&quot;&gt;&lt;a href=&quot;https://sdgs.qa.un.org&quot;&gt;https://sdgs.qa.un.org&lt;/a&gt; - QA&lt;/span&gt;&lt;/i&gt;&lt;br&gt;&lt;/span&gt;&lt;/i&gt;" style="text;strokeColor=none;fillColor=none;html=1;fontSize=24;fontStyle=1;verticalAlign=middle;align=center;" parent="1" vertex="1">
          <mxGeometry x="230" y="80" width="100" height="40" as="geometry" />
        </mxCell>
        <mxCell id="dnXlJcdKjLnWwiea_6q6-5" style="edgeStyle=orthogonalEdgeStyle;rounded=0;orthogonalLoop=1;jettySize=auto;html=1;entryX=0.663;entryY=1.033;entryDx=0;entryDy=0;entryPerimeter=0;startArrow=classic;startFill=1;" parent="1" source="dnXlJcdKjLnWwiea_6q6-3" target="WMJqvAxaC52JAcJJs5ff-44" edge="1">
          <mxGeometry relative="1" as="geometry" />
        </mxCell>
        <mxCell id="dnXlJcdKjLnWwiea_6q6-6" value="Read-only JSON apis" style="edgeLabel;html=1;align=center;verticalAlign=middle;resizable=0;points=[];" parent="dnXlJcdKjLnWwiea_6q6-5" vertex="1" connectable="0">
          <mxGeometry x="0.183" y="-2" relative="1" as="geometry">
            <mxPoint x="52" y="17" as="offset" />
          </mxGeometry>
        </mxCell>
        <mxCell id="dnXlJcdKjLnWwiea_6q6-3" value="&lt;font color=&quot;#ffffff&quot;&gt;&lt;b&gt;Certain consumers&lt;br&gt;such as the Ocean&amp;nbsp;&lt;br&gt;Conference programme&lt;br&gt;&lt;/b&gt;&lt;/font&gt;" style="rounded=1;whiteSpace=wrap;html=1;strokeColor=#000000;fillColor=#999999;" parent="1" vertex="1">
          <mxGeometry x="590" y="680" width="160" height="90" as="geometry" />
        </mxCell>
        <mxCell id="egXUL08aLy7-f1v6Yw_E-1" value="Partner&lt;br&gt;&lt;br&gt;A restricted editor that &lt;br&gt;only edits its own partnerships" style="shape=umlActor;verticalLabelPosition=bottom;verticalAlign=top;html=1;outlineConnect=0;strokeColor=#000000;fillColor=#ffffff;" vertex="1" parent="1">
          <mxGeometry x="712" y="366" width="30" height="60" as="geometry" />
        </mxCell>
        <mxCell id="egXUL08aLy7-f1v6Yw_E-2" style="edgeStyle=orthogonalEdgeStyle;rounded=0;orthogonalLoop=1;jettySize=auto;html=1;startArrow=none;startFill=0;" edge="1" parent="1">
          <mxGeometry relative="1" as="geometry">
            <mxPoint x="700" y="400" as="sourcePoint" />
            <Array as="points">
              <mxPoint x="665" y="396" />
              <mxPoint x="665" y="539" />
              <mxPoint x="555" y="539" />
              <mxPoint x="555" y="593" />
            </Array>
            <mxPoint x="450" y="593" as="targetPoint" />
          </mxGeometry>
        </mxCell>
      </root>
    </mxGraphModel>
  </diagram>
</mxfile>
